<svg width="200" height="89" viewBox="0 0 200 89" fill="none" xmlns="http://www.w3.org/2000/svg">
<path d="M126.572 21.473L129.952 70.3078H119.675L118.226 44.166L119.054 37.1305H118.433L111.122 67.3418L100.844 67.9626L93.188 37.1994H92.5672L93.3949 44.028L92.2913 70.3078H83.2555L85.8766 21.473H98.7061L105.604 49.753L106.638 56.5816H107.052L107.811 49.822L114.019 21.473H126.572ZM146.091 71.1355C142.78 71.1355 140.182 70.1238 138.297 68.1006C136.411 66.0773 135.469 63.2953 135.469 59.7545V34.0266L146.022 33.0609V58.444C146.022 61.4329 147.401 62.9274 150.16 62.9274C151.908 62.9274 153.402 62.2606 154.644 60.9271V34.0266L165.266 33.0609V59.6855L166.025 69.687L157.748 70.7216L156.851 66.5141H156.575C153.862 69.595 150.367 71.1355 146.091 71.1355ZM184.327 33.2678H193.639L192.397 40.9241H184.327V56.7196C184.327 59.0647 184.649 60.6972 185.293 61.6168C185.936 62.5365 187.04 62.9964 188.604 62.9964C189.247 62.9964 190.558 62.7664 192.535 62.3066L194.397 68.4454C193.524 69.1352 192.098 69.756 190.121 70.3078C188.19 70.8596 186.419 71.1355 184.81 71.1355C180.257 71.1355 177.269 69.9859 175.843 67.6867C174.464 65.3415 173.774 61.5249 173.774 56.2367V40.9241H168.463L169.428 34.0266L173.981 33.4058L174.395 26.5082L184.327 23.5422V33.2678Z" fill="white"/>
<path fill-rule="evenodd" clip-rule="evenodd" d="M37.5405 0.660951C37.1149 0.770653 33.3319 1.87449 31.6957 2.36644C28.9354 3.19641 23.1394 5.07078 19.4807 6.31686C17.4942 6.99344 13.5342 8.31431 10.6807 9.25215C4.3099 11.3462 0.78018 12.6114 0.336501 12.9601L0 13.2245L0.0893126 19.7924C0.187295 27.0041 0.292634 28.9671 0.776503 32.5933C1.79192 40.2027 3.9625 47.2965 7.62239 54.9666C8.99808 57.8495 10.0155 59.6531 12.3597 63.3647C13.731 65.5359 14.5995 66.7163 17.6218 70.5163C19.7807 73.2306 24.0525 77.7028 26.1884 79.4846C32.2612 84.5506 37.5816 88.6249 38.1243 88.6249C38.4273 88.6249 41.0631 86.8714 42.6748 85.5976C50.0894 79.7375 54.8586 75.1265 59.2921 69.5322C59.9785 68.6661 60.714 67.714 60.9268 67.4162C61.1396 67.1186 61.6475 66.4335 62.0554 65.8938C62.4634 65.3541 62.8908 64.7319 63.0049 64.5112C63.1192 64.2905 63.5509 63.6175 63.9644 63.0156C65.2216 61.1856 67.1028 57.7586 69.2831 53.3263C71.5404 48.7379 72.9692 44.8679 74.1033 40.2698C74.7588 37.6123 75.1392 35.5959 75.5023 32.8557C76.085 28.4554 76.1238 27.7602 76.1837 20.606C76.2162 16.7194 76.2074 13.3986 76.1642 13.2265C76.1171 13.0387 75.8842 12.8106 75.5828 12.657C75.0703 12.3958 70.9852 11.0184 64.2688 8.84196C62.21 8.17483 56.8315 6.39953 52.3166 4.89691C41.4943 1.29501 38.4579 0.424621 37.5405 0.660951ZM36.6867 5.03286C34.8582 5.5235 22.6807 9.66589 20.8598 10.4167C20.6431 10.5061 19.0473 11.0679 17.3136 11.6652C13.2342 13.0704 8.77624 14.6392 7.52848 15.1086L6.5434 15.4791L6.54931 22.1007C6.55338 26.6223 6.60841 29.1592 6.72268 30.1001C7.53215 36.7635 8.61416 40.6926 11.0025 45.6405C13.3228 50.4476 16.4718 54.0678 22.7039 59.0932C25.2635 61.1571 26.842 62.2276 29.0031 63.365C29.7978 63.7832 30.8321 64.3414 31.3016 64.6053C32.7027 65.3926 34.2634 66.033 36.9076 66.9054L38.3763 67.3898L40.3882 66.6997C46.6423 64.5545 52.6465 60.9142 57.5845 56.2737C59.5164 54.4581 62.1093 51.438 63.1566 49.7833C64.3649 47.8747 66.2827 43.9962 66.9201 42.1725C67.3461 40.954 68.3071 37.5362 68.5872 36.2447C68.987 34.3998 69.4989 30.0807 69.6497 27.2788C69.7235 25.9076 69.7842 22.7104 69.7846 20.174L69.7853 15.5625L68.8987 15.2051C67.8729 14.7917 63.8631 13.3892 60.2629 12.1846C57.8806 11.3875 56.2099 10.8025 47.7196 7.79284C43.2448 6.20663 38.5211 4.63932 38.2564 4.65297C38.1516 4.65848 37.4452 4.82933 36.6867 5.03286ZM34.3182 9.08629C32.4062 9.72573 29.3643 10.7373 27.5584 11.3342C25.7524 11.9312 23.27 12.7921 22.0419 13.2475C19.8589 14.0567 16.4623 15.2692 11.8777 16.8757L9.59398 17.676L9.66727 23.1992C9.75711 29.9833 10.0272 32.6608 11.0184 36.5956C12.5654 42.7355 14.9808 47.4696 18.6837 51.6187C22.0352 55.3739 25.6019 58.2861 29.4628 60.42C31.5528 61.575 36.3178 63.9123 37.0151 64.1244C38.1079 64.4569 38.255 64.4678 39.0047 64.2727C39.961 64.0239 46.9221 60.5288 49.0192 59.2447C51.4057 57.7831 51.7207 57.5389 55.1369 54.5002C56.979 52.8618 59.5084 49.6925 61.0483 47.0933C63.3903 43.1406 64.7915 39.1798 65.83 33.5775C66.4691 30.1299 66.5375 29.1371 66.553 23.0933L66.5674 17.4641L65.4509 17.1006C63.2043 16.3693 53.4706 13.0344 50.1494 11.8581C48.2712 11.1929 46.1139 10.4422 45.3554 10.1899C44.5969 9.93752 43.4667 9.53428 42.8438 9.29375C42.221 9.05322 41.2183 8.73055 40.6157 8.57689C40.0131 8.42323 39.3187 8.21327 39.0724 8.11053C38.8263 8.00778 38.4379 7.92367 38.2096 7.92367C37.9812 7.92367 36.23 8.44685 34.3182 9.08629ZM35.7675 14.3702C33.6719 14.6126 30.3135 15.6947 28.3806 16.7507C24.8464 18.6813 21.735 21.8024 19.6333 25.5252C19.0406 26.5754 18.1968 28.8807 17.8152 30.4938C17.0438 33.7529 17.3744 38.6233 18.575 41.6867C19.047 42.891 20.2739 45.2206 20.953 46.2022C23.0341 49.2096 27.2472 52.3585 31.1046 53.7895C35.1943 55.3064 38.2346 55.6034 41.9455 54.8482C47.4321 53.7315 51.8495 51.0253 54.9364 46.8898C58.2619 42.4343 59.473 37.275 58.5549 31.4744C58.3414 30.1265 57.3895 27.2346 56.7287 25.9276C55.7096 23.9117 53.7903 21.33 52.1874 19.8194C50.4686 18.1996 47.8501 16.4672 45.8817 15.6476C44.6762 15.1457 42.3223 14.5408 40.8646 14.3581C39.6068 14.2005 37.1853 14.2063 35.7675 14.3702ZM36.6799 17.5157C33.4615 17.8268 30.1311 19.2002 27.2507 21.4041C24.3571 23.618 22.3603 26.528 21.2709 30.1183C19.2249 36.8622 21.6797 44.1548 27.4244 48.3993C31.9218 51.7223 37.2426 52.8821 42.2688 51.6351C46.2596 50.6451 49.2416 48.8431 51.5221 46.0435C54.1738 42.7886 55.3353 39.83 55.6695 35.4802C55.8559 33.0538 55.2483 30.154 54.0333 27.6725C51.161 21.8061 45.9382 18.0828 39.7733 17.5068C38.198 17.3597 38.2967 17.3594 36.6799 17.5157ZM31.063 25.0912C30.828 25.3105 30.6282 25.6597 30.5748 25.9444C30.525 26.2095 30.5079 30.604 30.5367 35.7101C30.5762 42.7098 30.6288 45.0651 30.7501 45.2836C30.8387 45.443 31.1182 45.7313 31.371 45.924C31.8271 46.2716 31.8357 46.2726 32.3872 46.0581C32.6931 45.9391 33.5936 45.4343 34.3882 44.9363C35.7656 44.0731 36.4948 43.6393 41.8091 40.5222C43.0733 39.7807 44.876 38.7072 45.8151 38.1366C46.7542 37.5661 47.959 36.8415 48.4924 36.5265C49.9355 35.6743 50.3267 34.8262 49.5912 34.145C49.3925 33.961 48.373 33.3655 47.3255 32.8219C46.2781 32.2781 44.83 31.5227 44.1076 31.143C43.3852 30.7634 41.2602 29.6588 39.3853 28.6884C37.5104 27.718 35.1102 26.4283 34.0516 25.822C32.993 25.2159 31.977 24.72 31.7938 24.72C31.6095 24.72 31.2831 24.8859 31.063 25.0912ZM72.0083 30.0059C71.2788 30.5695 71.2403 31.308 71.9112 31.872C72.5674 32.4236 73.2287 32.2813 73.7233 31.4816C74.0778 30.9086 73.9904 30.5938 73.3574 30.1641C72.8373 29.811 72.3365 29.7522 72.0083 30.0059ZM2.84096 30.2641C2.35788 30.7969 2.28091 31.0437 2.47858 31.4254C2.70213 31.8574 3.40534 32.4621 3.68431 32.4621C3.79832 32.4621 4.12116 32.2209 4.40185 31.926C5.00064 31.2972 4.98422 31.045 4.30229 30.3953C3.76378 29.8823 3.23052 29.8344 2.84096 30.2641ZM74.0639 53.37C73.6348 53.7987 73.6139 54.3156 74.0211 54.4246C74.4885 54.5498 75.4262 54.5202 75.7044 54.3715C76.03 54.1974 76.0309 53.6949 75.706 53.4011C75.567 53.2755 75.217 53.1412 74.9279 53.1024C74.4853 53.0431 74.3488 53.0854 74.0639 53.37ZM1.11405 53.4415C1.01739 53.5028 0.958281 53.6937 0.982711 53.866C1.01975 54.1286 1.11209 54.1855 1.55235 54.2178C1.87769 54.2418 2.17781 54.1792 2.34041 54.0538C2.60126 53.8525 2.60086 53.8491 2.293 53.5886C1.97186 53.3169 1.41969 53.248 1.11405 53.4415ZM2.34501 56.6205C1.7776 57.1182 1.72572 57.6449 2.19777 58.1165C2.65379 58.5721 3.11613 58.6502 3.72766 58.3747C4.31542 58.1098 4.3895 57.7978 4.03198 57.0924C3.5267 56.0955 3.08447 55.9717 2.34501 56.6205ZM12.6454 56.8093C12.123 57.3412 12.0611 57.468 12.0723 57.9856C12.0874 58.6864 12.7716 60.1503 13.2654 60.5385C13.4526 60.6856 13.7532 60.8059 13.9336 60.8059C14.3705 60.8059 15.4101 59.776 15.4062 59.347C15.3987 58.5304 13.8973 56.2132 13.3759 56.2132C13.2962 56.2132 12.9674 56.4814 12.6454 56.8093ZM72.1589 56.9399C72.0092 57.3395 71.8868 57.77 71.8868 57.8966C71.8868 58.1433 73.1386 58.8376 73.5835 58.8376C73.9565 58.8376 74.6799 57.6444 74.5706 57.2094C74.4247 56.6285 73.7983 56.2132 73.0682 56.2132H72.4311L72.1589 56.9399ZM61.459 58.463C60.3124 59.7289 60.1663 60.6419 61.0513 61.0114C61.7407 61.2992 62.3506 61.2495 62.8037 60.8685C63.302 60.4495 63.7923 59.4604 63.6787 59.1029C63.5542 58.7111 62.9781 58.0688 62.5553 57.8503C62.1905 57.6619 62.1788 57.6683 61.459 58.463ZM70.5342 60.4048C70.1528 60.8576 69.8397 61.7285 69.9526 62.0227C70.0423 62.2563 71.1259 62.7744 71.5241 62.774C71.8237 62.7737 72.4075 62.0126 72.6015 61.3694C72.7279 60.9505 71.9745 60.165 71.3515 60.0662C70.9415 60.0011 70.8379 60.0441 70.5342 60.4048ZM4.70459 60.3514C4.19511 60.6099 3.85073 61.0244 3.85138 61.3782C3.85204 61.7701 4.30544 62.4717 4.62342 62.5724C4.93247 62.6705 5.7866 62.465 6.13833 62.208C6.37213 62.0373 6.37278 62.0031 6.15712 61.354C5.96536 60.7772 5.45404 60.1479 5.1794 60.1506C5.135 60.1511 4.92131 60.2414 4.70459 60.3514ZM68.1083 64.3923C67.7583 64.5864 67.2599 65.2924 67.06 65.8772C66.9333 66.2478 66.9547 66.3239 67.2685 66.6184C67.7598 67.0796 68.4898 67.4976 68.8002 67.4953C69.1058 67.4932 69.8821 66.3916 70.0026 65.7889C70.1043 65.2814 69.7976 64.8212 69.1318 64.4818C68.5309 64.1756 68.5034 64.1731 68.1083 64.3923ZM6.82053 64.8377C6.17432 65.5025 6.13715 65.7021 6.53381 66.3783C6.95542 67.0971 7.56276 67.551 7.96716 67.4495C8.32192 67.3606 9.19378 66.7172 9.29596 66.4688C9.41693 66.1749 8.91599 65.2284 8.39954 64.7754C7.7641 64.2179 7.40935 64.232 6.82053 64.8377ZM54.4981 66.3153C53.6405 67.1256 53.3262 67.6957 53.5239 68.0826C53.8106 68.6439 54.5979 69.3353 54.9504 69.3353C55.3967 69.3353 56.271 68.7028 56.6324 68.1186C57.1198 67.3308 56.9595 66.6446 56.156 66.0792C55.4265 65.566 55.2671 65.5887 54.4981 66.3153ZM19.8604 66.2014C19.4178 66.6748 19.284 67.0889 19.4109 67.5939C19.5321 68.0766 20.8056 69.3353 21.1728 69.3353C21.8619 69.3353 22.7136 68.324 22.5552 67.6936C22.5071 67.5022 22.1438 66.9959 21.7481 66.5689C20.8801 65.6321 20.4676 65.5518 19.8604 66.2014ZM9.80965 69.0166C9.14584 69.7198 9.19575 70.1765 10.0371 71.0962C10.8231 71.9553 11.1052 72.0065 11.7246 71.4021C12.48 70.6651 12.568 70.4657 12.3355 70.0165C12.0401 69.4458 10.9664 68.548 10.5792 68.548C10.3742 68.548 10.0869 68.7229 9.80965 69.0166ZM64.7102 69.1057C64.4912 69.3403 64.1833 69.7582 64.0261 70.0345L63.7402 70.5368L64.0136 70.9205C64.164 71.1316 64.4959 71.4633 64.7513 71.6579C65.1822 71.9863 65.2396 71.9979 65.556 71.8205C66.0302 71.5547 67.0271 70.3012 67.0271 69.9711C67.0271 69.821 66.7976 69.4689 66.5172 69.1886C65.843 68.5151 65.2856 68.4895 64.7102 69.1057ZM26.7046 71.7899C26.2666 71.9499 25.9166 72.4058 25.9166 72.8161C25.9166 73.4689 26.3998 74.0409 27.9123 75.1782C29.9348 76.6991 31.1486 77.069 31.6016 76.3027C31.9553 75.7044 31.8805 75.4136 31.2038 74.7565C30.5515 74.1232 28.3768 72.4367 27.6104 71.97C27.1499 71.6894 27.0398 71.6675 26.7046 71.7899ZM47.0629 72.8254C45.7551 73.8361 45.4266 74.2744 45.5514 74.8422C45.8854 76.3612 48.2054 75.8969 49.6418 74.0237C49.9958 73.562 50.0356 73.4353 49.9256 73.1203C49.7465 72.6069 48.9701 71.9595 48.5359 71.9612C48.2988 71.9622 47.8052 72.2518 47.0629 72.8254ZM13.2482 73.2088C12.6385 73.818 12.5492 74.2043 12.9033 74.7011C13.2611 75.203 14.3464 76.1588 14.5585 76.1588C14.7688 76.1588 15.5931 75.2482 15.8738 74.7057C16.0789 74.3093 16.0771 74.2682 15.8391 73.9499C15.4815 73.4712 14.3862 72.7471 14.02 72.7471C13.841 72.7471 13.5155 72.9418 13.2482 73.2088ZM60.9046 73.1715C60.6385 73.4049 60.339 73.7915 60.2391 74.0303C60.063 74.4514 60.0744 74.4889 60.6079 75.2489C61.4056 76.3851 61.6336 76.4011 62.5862 75.3884C63.4311 74.4904 63.5261 74.1328 63.0939 73.4776C62.5383 72.6357 61.656 72.5123 60.9046 73.1715ZM57.2249 76.9391C56.5339 77.2481 55.7315 78.0232 55.7315 78.3817C55.7315 78.7162 56.2721 79.6874 56.6469 80.0262C56.9969 80.3427 57.3929 80.2191 58.1439 79.5585C59.1851 78.643 59.3746 78.0244 58.8169 77.3623C58.3311 76.7856 57.8526 76.6583 57.2249 76.9391ZM17.3987 77.2094C16.7462 77.8613 16.8175 78.3417 17.6841 79.131C18.0684 79.481 18.5369 79.8489 18.7252 79.9485C19.0328 80.1112 19.1038 80.1011 19.4258 79.848C19.8518 79.5133 20.4001 78.7965 20.4001 78.5745C20.4001 78.2499 18.788 77.033 18.1539 76.8792C17.8832 76.8135 17.7262 76.8821 17.3987 77.2094ZM37.3206 77.9823C36.5752 78.4544 36.2927 78.8468 36.2927 79.4095C36.2927 80.3653 37.1539 81.1453 38.2093 81.1453C39.1298 81.1453 39.9703 80.3435 39.9703 79.4654C39.9703 78.7392 38.8921 77.6023 38.2035 77.6023C38.0477 77.6023 37.6504 77.7733 37.3206 77.9823ZM52.2444 81.4611C51.6678 81.712 51.1065 82.4188 51.2069 82.7677C51.4497 83.6124 52.1522 84.0551 52.8145 83.781C53.399 83.5391 54.1554 82.7937 54.1554 82.4594C54.1554 82.0688 53.3455 81.275 52.9536 81.2816C52.7839 81.2845 52.4648 81.3652 52.2444 81.4611ZM22.6803 81.5993C22.2673 81.8884 22.0505 82.4993 22.2372 82.848C22.4151 83.18 23.5038 83.9009 23.8271 83.9009C23.9501 83.9009 24.2373 83.6883 24.4656 83.4285C25.0505 82.7631 24.9772 82.3789 24.1614 81.8342C23.4602 81.366 23.0962 81.3082 22.6803 81.5993Z" fill="#0080FF"/>
</svg>
